<?xml version="1.0" encoding="UTF-8" standalone="no"?>
<!-- Created with Inkscape (http://www.inkscape.org/) -->

<svg
   width="210mm"
   height="297mm"
   viewBox="0 0 210 297"
   version="1.1"
   id="svg5"
   inkscape:version="1.2.1 (9c6d41e410, 2022-07-14)"
   sodipodi:docname="logo.svg"
   xmlns:inkscape="http://www.inkscape.org/namespaces/inkscape"
   xmlns:sodipodi="http://sodipodi.sourceforge.net/DTD/sodipodi-0.dtd"
   xmlns="http://www.w3.org/2000/svg"
   xmlns:svg="http://www.w3.org/2000/svg">
  <style
     id="style1582">#rect111-5, #rect111, #rect5978, #rect5978-2, #rect5978-2-7-0, #text1359 {  }
</style>
  <sodipodi:namedview
     id="namedview7"
     pagecolor="#ffffff"
     bordercolor="#000000"
     borderopacity="0.25"
     inkscape:showpageshadow="2"
     inkscape:pageopacity="0.0"
     inkscape:pagecheckerboard="0"
     inkscape:deskcolor="#d1d1d1"
     inkscape:document-units="mm"
     showgrid="false"
     inkscape:zoom="1.6070988"
     inkscape:cx="494.68023"
     inkscape:cy="135.64816"
     inkscape:window-width="2560"
     inkscape:window-height="1057"
     inkscape:window-x="1016"
     inkscape:window-y="180"
     inkscape:window-maximized="1"
     inkscape:current-layer="layer1" />
  <defs
     id="defs2" />
  <g
     inkscape:groupmode="layer"
     id="layer2"
     inkscape:label="Warstwa 2">
    <path
       style="mix-blend-mode:overlay;fill:#b10606;fill-opacity:1;stroke:#424242;stroke-width:1.024;stroke-dasharray:none;stroke-opacity:1"
       d="M 38.239954,0.51190184 C 33.958676,0.51190184 30.512,4.389982 30.512,9.2071221 V 50.792871 c 0,4.817156 3.446676,8.695228 7.727954,8.695228 h 23.520294 c 4.281276,0 7.727948,-3.878072 7.727948,-8.695228 V 9.2071221 c 0,-4.8171401 -3.446672,-8.69522026 -7.727948,-8.69522026 z"
       id="rect111-5" />
  </g>
  <g
     inkscape:label="Warstwa 1"
     inkscape:groupmode="layer"
     id="layer1">
    <rect
       style="mix-blend-mode:overlay;fill:#424242;fill-opacity:1;stroke:#000000;stroke-width:0;stroke-dasharray:none;stroke-opacity:1"
       id="rect111"
       width="40"
       height="60"
       x="5.1146338e-07"
       y="5.1146338e-07"
       ry="10" />
    <path
       style="fill:#cc0000;fill-opacity:0;stroke:#000000;stroke-width:0;stroke-dasharray:none;stroke-opacity:1"
       d="m 83.937898,74.672387 c 0.924521,-0.640733 1.486633,-1.186942 2.089214,-2.0301 0.677622,-0.948161 1.190797,-2.002007 1.494099,-3.068262 l 0.253117,-0.889812 0.03523,-21.711195 c 0.02297,-14.153114 -0.006,-22.096193 -0.0831,-22.817129 -0.287965,-2.691357 -1.64654,-5.011296 -3.790474,-6.472712 l -0.580517,-0.39571 h 10.982759 c 12.213564,0 11.639234,-0.03447 13.228234,0.793889 1.00116,0.521919 2.26902,1.7601 2.88422,2.816728 0.58371,1.002546 0.99237,2.33192 1.13923,3.705921 0.0794,0.743078 0.10745,8.336657 0.0828,22.427219 -0.042,24.017441 0.0498,21.750591 -0.9673,23.875142 -0.88716,1.853092 -2.47027,3.276315 -4.36129,3.920808 l -0.7567,0.257894 -11.172268,0.0345 -11.172274,0.0345 z"
       id="path4747" />
    <rect
       style="fill:#ffffff;fill-opacity:0.304762;stroke:#000000;stroke-width:0;stroke-dasharray:none;stroke-opacity:1"
       id="rect5978"
       width="20"
       height="5"
       x="43.000023"
       y="10.000001"
       rx="0"
       ry="1.5" />
    <rect
       style="fill:#ffffff;fill-opacity:0.304762;stroke:#000000;stroke-width:0;stroke-dasharray:none;stroke-opacity:1"
       id="rect5978-2"
       width="19.999998"
       height="19.999998"
       x="43"
       y="20"
       rx="0"
       ry="5.9999995" />
    <rect
       style="fill:#ffffff;fill-opacity:0.304762;stroke:#000000;stroke-width:0;stroke-dasharray:none;stroke-opacity:1"
       id="rect5978-2-7-0"
       width="20"
       height="5"
       x="43"
       y="45"
       rx="0"
       ry="1.5" />
    <text
       xml:space="preserve"
       style="font-size:35.9977px;fill:#c95252;fill-opacity:1;stroke:#c95252;stroke-width:0;stroke-linejoin:bevel;stroke-opacity:0.420408"
       x="11.337868"
       y="37.808125"
       id="text1359"
       transform="scale(0.8542419,1.1706286)"><tspan
         sodipodi:role="line"
         id="tspan1357"
         style="font-style:normal;font-variant:normal;font-weight:normal;font-stretch:normal;font-size:35.9977px;font-family:'MV Boli';-inkscape-font-specification:'MV Boli';fill:#c95252;fill-opacity:1;stroke:#c95252;stroke-width:0;stroke-opacity:0.420408"
         x="11.337868"
         y="37.808125">?</tspan></text>
  </g>
</svg>
